<svg width="101" height="32" viewBox="0 0 101 32" fill="none" xmlns="http://www.w3.org/2000/svg">
<path d="M9.16903 8.45459H11.804V17.9574C11.804 18.9991 11.5578 19.9153 11.0653 20.706C10.5777 21.4967 9.8911 22.1146 9.00568 22.5597C8.12027 23 7.0857 23.2202 5.90199 23.2202C4.71354 23.2202 3.67661 23 2.79119 22.5597C1.90578 22.1146 1.21922 21.4967 0.731534 20.706C0.243845 19.9153 0 18.9991 0 17.9574V8.45459H2.63494V17.7373C2.63494 18.3433 2.76752 18.8831 3.03267 19.3566C3.30256 19.8301 3.68134 20.2017 4.16903 20.4716C4.65672 20.7368 5.23438 20.8694 5.90199 20.8694C6.5696 20.8694 7.14725 20.7368 7.63494 20.4716C8.12737 20.2017 8.50616 19.8301 8.77131 19.3566C9.03646 18.8831 9.16903 18.3433 9.16903 17.7373V8.45459Z" fill="#101828"/>
<path d="M17.1254 16.608V23H14.5543V12.091H17.0117V13.9446H17.1396C17.3905 13.3339 17.7906 12.8485 18.3398 12.4887C18.8938 12.1288 19.578 11.9489 20.3924 11.9489C21.1452 11.9489 21.801 12.1099 22.3597 12.4319C22.9232 12.7538 23.3588 13.2202 23.6665 13.831C23.979 14.4418 24.1329 15.1828 24.1282 16.054V23H21.5572V16.4517C21.5572 15.7226 21.3678 15.152 20.989 14.7401C20.6149 14.3282 20.0965 14.1222 19.4336 14.1222C18.9838 14.1222 18.5837 14.2216 18.2333 14.4205C17.8877 14.6146 17.6154 14.8964 17.4165 15.2657C17.2224 15.635 17.1254 16.0824 17.1254 16.608Z" fill="#101828"/>
<path d="M32.1893 12.091V14.0796H25.918V12.091H32.1893ZM27.4663 9.47732H30.0373V19.7188C30.0373 20.0644 30.0894 20.3296 30.1935 20.5142C30.3024 20.6942 30.4445 20.8173 30.6197 20.8836C30.7949 20.9499 30.989 20.983 31.2021 20.983C31.363 20.983 31.5098 20.9712 31.6424 20.9475C31.7797 20.9238 31.8839 20.9025 31.9549 20.8836L32.3881 22.8935C32.2508 22.9409 32.0543 22.9929 31.7987 23.0498C31.5477 23.1066 31.2399 23.1397 30.8754 23.1492C30.2314 23.1681 29.6514 23.0711 29.1353 22.858C28.6192 22.6402 28.2096 22.304 27.9066 21.8495C27.6083 21.3949 27.4615 20.8267 27.4663 20.1449V9.47732Z" fill="#101828"/>
<path d="M34.3395 23V12.091H36.9105V23H34.3395ZM35.6321 10.5427C35.2249 10.5427 34.8745 10.4077 34.581 10.1378C34.2874 9.86321 34.1406 9.53413 34.1406 9.15061C34.1406 8.76235 34.2874 8.43328 34.581 8.1634C34.8745 7.88878 35.2249 7.75146 35.6321 7.75146C36.044 7.75146 36.3944 7.88878 36.6832 8.1634C36.9768 8.43328 37.1236 8.76235 37.1236 9.15061C37.1236 9.53413 36.9768 9.86321 36.6832 10.1378C36.3944 10.4077 36.044 10.5427 35.6321 10.5427Z" fill="#101828"/>
<path d="M45.0018 12.091V14.0796H38.7305V12.091H45.0018ZM40.2788 9.47732H42.8498V19.7188C42.8498 20.0644 42.9019 20.3296 43.006 20.5142C43.1149 20.6942 43.257 20.8173 43.4322 20.8836C43.6074 20.9499 43.8015 20.983 44.0146 20.983C44.1755 20.983 44.3223 20.9712 44.4549 20.9475C44.5922 20.9238 44.6964 20.9025 44.7674 20.8836L45.2006 22.8935C45.0633 22.9409 44.8668 22.9929 44.6112 23.0498C44.3602 23.1066 44.0524 23.1397 43.6879 23.1492C43.0439 23.1681 42.4639 23.0711 41.9478 22.858C41.4317 22.6402 41.0221 22.304 40.7191 21.8495C40.4208 21.3949 40.274 20.8267 40.2788 20.1449V9.47732Z" fill="#101828"/>
<path d="M49.9574 8.45459V23H47.3864V8.45459H49.9574Z" fill="#101828"/>
<path d="M57.4308 23.2131C56.337 23.2131 55.3924 22.9858 54.5969 22.5313C53.8062 22.072 53.1978 21.4233 52.7717 20.5853C52.3455 19.7425 52.1325 18.7505 52.1325 17.6094C52.1325 16.4873 52.3455 15.5024 52.7717 14.6549C53.2025 13.8026 53.8039 13.1397 54.5756 12.6662C55.3474 12.188 56.2541 11.9489 57.2958 11.9489C57.9682 11.9489 58.6026 12.0578 59.1992 12.2756C59.8005 12.4887 60.3308 12.8201 60.7901 13.2699C61.2541 13.7197 61.6187 14.2927 61.8839 14.9887C62.149 15.68 62.2816 16.5038 62.2816 17.4603V18.2486H53.3398V16.5157H59.8171C59.8124 16.0232 59.7058 15.5853 59.4975 15.2017C59.2892 14.8135 58.998 14.5081 58.6239 14.2856C58.2546 14.063 57.8237 13.9517 57.3313 13.9517C56.8058 13.9517 56.3441 14.0796 55.9464 14.3353C55.5487 14.5862 55.2385 14.9177 55.016 15.3296C54.7982 15.7368 54.6869 16.1842 54.6822 16.6719V18.1847C54.6822 18.8192 54.7982 19.3637 55.0302 19.8182C55.2622 20.268 55.5865 20.6137 56.0032 20.8552C56.4199 21.0919 56.9076 21.2103 57.4663 21.2103C57.8403 21.2103 58.1789 21.1582 58.4819 21.054C58.7849 20.9451 59.0477 20.7865 59.2702 20.5782C59.4928 20.3698 59.6609 20.1118 59.7745 19.804L62.1751 20.0739C62.0236 20.7084 61.7347 21.2624 61.3086 21.7358C60.8872 22.2046 60.3474 22.5692 59.6893 22.8296C59.0311 23.0853 58.2783 23.2131 57.4308 23.2131Z" fill="#101828"/>
<path d="M68.505 23.1918C67.648 23.1918 66.8809 22.9716 66.2038 22.5313C65.5267 22.091 64.9917 21.4517 64.5987 20.6137C64.2057 19.7756 64.0092 18.7576 64.0092 17.5597C64.0092 16.3476 64.2081 15.3249 64.6058 14.4915C65.0083 13.6535 65.5504 13.0214 66.2322 12.5952C66.9141 12.1643 67.674 11.9489 68.5121 11.9489C69.1513 11.9489 69.6768 12.0578 70.0888 12.2756C70.5007 12.4887 70.8274 12.7467 71.0689 13.0498C71.3104 13.3481 71.4974 13.6298 71.63 13.8949H71.7365V8.45459H74.3146V23H71.7862V21.2813H71.63C71.4974 21.5464 71.3056 21.8282 71.0547 22.1265C70.8037 22.42 70.4723 22.671 70.0604 22.8793C69.6484 23.0876 69.13 23.1918 68.505 23.1918ZM69.2223 21.0824C69.7668 21.0824 70.2308 20.9357 70.6143 20.6421C70.9979 20.3438 71.2891 19.9295 71.4879 19.3992C71.6868 18.8689 71.7862 18.251 71.7862 17.5455C71.7862 16.84 71.6868 16.2268 71.4879 15.706C71.2938 15.1852 71.005 14.7803 70.6214 14.4915C70.2427 14.2027 69.7763 14.0583 69.2223 14.0583C68.6494 14.0583 68.1712 14.2074 67.7876 14.5057C67.4041 14.804 67.1153 15.216 66.9212 15.7415C66.727 16.2671 66.63 16.8684 66.63 17.5455C66.63 18.2273 66.727 18.8357 66.9212 19.3708C67.12 19.9011 67.4112 20.3201 67.7947 20.6279C68.183 20.9309 68.6589 21.0824 69.2223 21.0824Z" fill="#101828"/>
<path d="M91.2979 8.45459H93.9329V17.9574C93.9329 18.9991 93.6867 19.9153 93.1942 20.706C92.7066 21.4967 92.02 22.1146 91.1346 22.5597C90.2492 23 89.2146 23.2202 88.0309 23.2202C86.8424 23.2202 85.8055 23 84.9201 22.5597C84.0347 22.1146 83.3481 21.4967 82.8604 20.706C82.3727 19.9153 82.1289 18.9991 82.1289 17.9574V8.45459H84.7638V17.7373C84.7638 18.3433 84.8964 18.8831 85.1616 19.3566C85.4315 19.8301 85.8102 20.2017 86.2979 20.4716C86.7856 20.7368 87.3633 20.8694 88.0309 20.8694C88.6985 20.8694 89.2762 20.7368 89.7638 20.4716C90.2563 20.2017 90.6351 19.8301 90.9002 19.3566C91.1654 18.8831 91.2979 18.3433 91.2979 17.7373V8.45459Z" fill="#101828"/>
<path d="M99.4318 8.45459V23H96.7969V8.45459H99.4318Z" fill="#101828"/>
</svg>
