<svg width="59" height="46" viewBox="0 0 59 46" fill="none" xmlns="http://www.w3.org/2000/svg">
<path d="M8.5421 42.4706C8.3834 43.2909 8.91976 44.0846 9.7401 44.2433C10.5604 44.402 11.3541 43.8656 11.5128 43.0453L8.5421 42.4706ZM50.261 3.48113C51.089 3.36921 51.6695 2.60723 51.5576 1.77922C51.4456 0.951204 50.6837 0.370703 49.8557 0.482632L50.261 3.48113ZM4.0707 32.2659C3.64017 31.5498 2.71065 31.3184 1.99457 31.7489C1.27849 32.1794 1.04701 33.109 1.47755 33.825L4.0707 32.2659ZM8.29615 42.2298L6.99957 43.0094L7.0003 43.0106L8.29615 42.2298ZM11.9437 43.2896L11.3255 41.9088L11.3243 41.9094L11.9437 43.2896ZM22.9566 40.0167C23.7192 39.6753 24.0607 38.7803 23.7192 38.0177C23.3778 37.2551 22.4828 36.9136 21.7202 37.2551L22.9566 40.0167ZM10.0274 42.7579C11.5128 43.0453 11.5127 43.0456 11.5127 43.0459C11.5127 43.0459 11.5126 43.0461 11.5126 43.0461C11.5126 43.0461 11.5127 43.0458 11.5128 43.0453C11.513 43.0442 11.5134 43.0421 11.5141 43.0389C11.5153 43.0326 11.5174 43.022 11.5204 43.0074C11.5263 42.9781 11.5357 42.9324 11.5487 42.871C11.5748 42.7484 11.6153 42.5632 11.6715 42.3216C11.7841 41.8383 11.9595 41.1299 12.2079 40.2451C12.7051 38.4743 13.4928 36.004 14.6509 33.2214C16.9767 27.6332 20.7491 20.8998 26.5588 15.9968L24.6073 13.6844C18.2808 19.0236 14.2754 26.249 11.8574 32.0588C10.6436 34.9753 9.81797 37.5639 9.29479 39.4272C9.03303 40.3595 8.84648 41.112 8.72461 41.6353C8.66367 41.8971 8.61887 42.1016 8.58889 42.2428C8.5739 42.3135 8.56262 42.3683 8.55488 42.4065C8.55101 42.4256 8.54802 42.4405 8.5459 42.4512C8.54484 42.4566 8.54399 42.4609 8.54336 42.4641C8.54304 42.4657 8.54278 42.4671 8.54257 42.4682C8.54247 42.4687 8.54235 42.4693 8.5423 42.4696C8.54219 42.4701 8.5421 42.4706 10.0274 42.7579ZM26.5588 15.9968C38.4729 5.94196 47.942 3.79461 50.261 3.48113L49.8557 0.482632C46.9726 0.872361 36.9657 3.25462 24.6073 13.6844L26.5588 15.9968ZM1.47755 33.825L6.99957 43.0094L9.59273 41.4503L4.0707 32.2659L1.47755 33.825ZM7.0003 43.0106C8.15237 44.9227 10.5592 45.5693 12.5632 44.6699L11.3243 41.9094C10.6171 42.2267 9.89921 41.9589 9.592 41.4491L7.0003 43.0106ZM12.5619 44.6705L22.9566 40.0167L21.7202 37.2551L11.3255 41.9088L12.5619 44.6705Z" fill="#3538CD"/>
</svg>
